<svg id="Capa_1" data-name="Capa 1" xmlns="http://www.w3.org/2000/svg" viewBox="0 0 619.01 412.77"><defs><style>.cls-1{fill:none;stroke:#fff;stroke-miterlimit:10;}.cls-2{font-size:163.25px;font-family:BebasNeue-Regular, Bebas Neue;}.cls-3{letter-spacing:0em;}.cls-4{font-size:28.23px;fill:#1d1d1b;font-family:Neou-Bold, Neou;font-weight:700;}</style></defs><title>logo</title><rect class="cls-1" x="322.69" y="202.13" width="50.83" height="33.42"/><path d="M333.34,214.37c-7.8-.22-15.62,0-23.44,0-2.48,0-5.38.74-7.35-.28-3.59-1.88.33-4.47.47-6.78.9-15.71,1.57-31.43,2.17-47.15.12-3.23-.93-3.82-3.85-3.73-13.57.46-27.15.85-40.73,1-3.59,0-4.37,1.37-4.56,4.63-1,16.11-2.28,32.2-3.19,48.31-.19,3.32-1.23,4.11-4.38,4-8-.25-16-.06-24-.19-1.59,0-2.84-.05-3.83-.14,0,1.14,0,2.28,0,3.42.23,19.73.24,39.47.25,59.21q0,6.13,0,12.26a1.47,1.47,0,0,1,1.41-1.57c1.54-.18,1.45,1.2,1.51,2.23s1.13,1.92,1.66,1.44c2.94-2.69,6.33,1.91,9.09-.66,1.63-1.51.72.89,1.57.9,1.83,0,3.88,1.26,4.92-1.43.09-.23-.43-1.47.69-.65,3.94,2.89,3.93,2.89,6.58-1.45-.34,7.58-.76,15.17-1,22.76-.09,2.9-1.16,4.18-4.14,4q-10.08-.46-20.18-.69a4.72,4.72,0,0,1-2.21-.46q0,8.72-.12,17.42h24.52l0,.82H220.75c0,1.42,0,2.84,0,4.25,0-1-.05.43-.14,3.1h128.1c.08-9,.28-18.09.17-27.13,0-3.12,1.1-3.91,4-3.87q13.31.13,26.6-.16c3.11-.06,4.41.77,4.24,4.16-.43,9,.33,18-.91,27h10.66c.05-13.49.23-27,.07-40.47,0-4.17,1.41-5.85,5.53-5.66a69.49,69.49,0,0,0,11.16-.41c-4.6,0-9.19,0-13.79,0-1.72,0-3.3-.28-2.86-2.66.9-4.81.36-9.87,2.34-14.17,3.75,2.34-1.87,11.24,7.59,10.05,3.37-.42,2.86-2.27,3.24-4.44-.09,4.24,2.47,4.19,5.62,4.33,4.5.19,3.42-3,4-5.59-.42,5.06,2.24,5.75,6.28,5.31,2.39-.27,2.83-1.27,2.94-3.36.37-7.2.94-14.38,1.43-21.56,2.23.74,1.39,2.65,1.26,4-1.18,12.14.7,24.23.37,36.37-.34,12.74,0,25.49,0,38.24h10.66c-.13-9.58-.12-19.16-.51-28.73-.1-2.5.61-3.22,2.79-3.23,10.13-.06,20.25-.09,30.37-.21,2.59,0,2.7,1.37,2.67,3.41-.12,9.58-.1,19.17-.13,28.76h11.73c-.24-1.49.34-2.19,1.9-2.38,4.36-.55,8.8,1,13.21-.82,1.17-.48.68,2,.88,3.2h35.18c.38-4.22,3.74-2.46,5.61-2.34,4,.26,5.27-1,4.82-5-.33-2.88-1-5.88,1.3-8.87V339H577.9V322.28c2.33,3.52,1.88,7.36,2,11.07.06,2.31.84,2.87,3.07,3,11.65.84,11.64.91,12.69-12,1.66,4.71,1.2,9.68,1.45,14.57h28.79V324.11c2.22,1.13,1.66,2.73,1.76,4,.64,7.85.61,7.72,8.83,7.83,2.74,0,6.71-2,7.53,3.06h68.24c8.53,0,18.55,0,18.55-8.53-5.65,0-21.37-.3-27,.2-5.18.46-7.55-1.29-7.17-5.92,7.91,2.11,26.06,1,34.15.39V299.54c-7.86,2-25.89.48-33.82.92a1.62,1.62,0,0,1-1.68-2.46c1.08-1.91.85,1.31,2.05.72,3.06-1.53,7.82,3.15,9.78-2.64.12-.34.46-1.18.52-.09.22,4.37,3.53,2.32,5.57,2.72,4.16.81,6.44-.53,5.58-5.24-.11-.63-.56-1.9.75-1.93.4,0,.82,1,1.23,1.6l11-8.53H695v-1.07H731.8V212.11c-13.29-.05-37.62.06-50.9-.2-11.47-.23-22.87-.7-34.42-.68m-13.28,8.19c-13.48.13-27,1.22-40.41,1-17.2-.24-34.28,1.81-51.52,1.06s-34.4.67-51.61,1.08c-1.47,0-3.57.57-3.72-1.83-.25-4.11-3.15-3.46-5.71-3.39-14.16.38-28.32.63-42.47,1.31-4.73.23-9.71-.89-15.64,1.93,3.72,0,6,.07,8.28,0,16.66-.59,33.31-1.24,50-1.78,1.35,0,3.77-1,3.65,1.57-.09,1.92-2.27,1.18-3.52,1.21-24.26.53-48.51,1.35-72.71,3.33-4.87.39-9.41-1.37-14.2-1.3q-26.64.38-53.27.59c-1.41,0-3.12.63-4.78-2.2h64.19l0-2.28c-21.55-.09-43.1,0-64.66.7M242.44,334.31H221.33c0-.1,0-.2,0-.3h21.1Zm7.34-108.18a3.45,3.45,0,0,1,1.44.44H232.73C238.45,224.75,244.11,225.53,249.78,226.13Zm-27.42,56.54h25.35C239.24,284.69,230.73,283.28,222.36,282.67Zm26.17-9.12H222c0-.3,0-.59,0-.89h26.63Zm3.73-44.16c-.35,6.54-.67,13.09-1,19.63-.15,3.08-1.19,4.82-4.85,4.58-6.36-.42-12.75-.35-19.12-.46-2.37,0-3.58-1-3.37-3.57.6-7.38,1.08-14.78,1.63-22.46a3.06,3.06,0,0,1,2.72,3.3c.09,1.65-1.15,4.26,2.31,4.15s1-3.23,2.84-4.65a9.65,9.65,0,0,1,.22,2c-.15,1.66.16,2.69,2.19,2.69,2.57,0,2-1.87,2.29-3.32.22-1.16,0-2.82,1.56-3s1.13,1.38,1.33,2.34c.31,1.47-1.19,3.84,1.93,3.95,3.78.13,1.56-3.21,2.76-4.63,1.82,1-1,5.13,2.66,4.56,4.22-.67,1.56-4.48,3.51-7.36A3.7,3.7,0,0,1,252.26,229.39ZM299,274.14l0-.7h26.48l-.21.7Zm25.82,6.13h-25.2v-.64h25.19C324.83,279.84,324.84,280.05,324.84,280.27ZM277.38,166.71c-.75,1.52-2.46.35-3.5,1.28,4.5,1.11,3.78,6.49,7.58,8.26l-.66,1.36L270.29,177c1.78-3.56,2.73-6.86-1.11-10.29ZM267.68,201c.56-12.36.55-12.51,12.84-12.39,9.26.08,8.62-2.29,8.11,8.86,0,.88-.21,1.76-.3,2.64-1,10.38-1,10.38-11.26,10.73L267,210.37C267.24,207.25,267.54,204.14,267.68,201Zm-7.47,72h26.51v.8H260.07C260.11,273.5,260.16,273.24,260.21,273Zm25.22,5.47v.46H261.38l.48-.46ZM256.77,332.5c9-1.67,18.09-1,27.13,0Zm28.89-19.74c-.14,2.94-2.44,2.65-4.32,2.61-6.92-.13-13.83-.49-20.75-.53-2.15,0-2.78-.66-2.67-2.72.5-9,.92-18,1.34-27,.08-1.62.44-3,2.47-2.26,5.59,1.91,11.41,1.05,17,.64,3.26-.23,2,.47,1.63,2a26.05,26.05,0,0,0-.18,4.25c-.06,1.51.51,2.32,2.14,2.28,1.31,0,2.49,0,2.64-1.79.24-2.59.56-5.17.85-7.76l1.18.15C286.54,292.69,286.12,302.73,285.66,312.76Zm4.38-82.5c-.54,8.66-.91,17.34-1.24,26-.1,2.46-1.07,3.44-3.58,3.36-7.44-.23-14.89-.26-22.33-.47-.93,0-2.67.73-2.29-1.64,1.44-8.93,1.43-18,1.94-27,.2-3.42,1.89-4.69,6.65-3.81-3.23,1-4.14,2.24-4.2,4.53-.22,7.79-.64,15.59-1.16,23.36-.15,2.2.64,2.81,2.63,2.82,5.85,0,11.7.11,17.55.28,2.05.05,2.78-.76,2.86-2.77.31-8.15.63-16.3,1.23-24.43.15-1.95-1.21-2.51-2.26-3.87C289,226.21,290.23,227.13,290,230.26Zm33.73,102.86h-28c0-.34,0-.68,0-1h28Zm2.41-42.54c-.21,7.07-.61,14.14-.64,21.22,0,3.26-1.28,4.44-4.4,4.34-6.92-.23-13.84-.39-20.77-.44-2.51,0-3.48-1-3.33-3.5.51-8.47.89-17,1.41-25.43.06-1-.57-3,1.43-2.74,1.83.2.95,2,1,3.06a28.32,28.32,0,0,1-.08,3.19c-.1,1.92,1.26,1.83,2.52,1.83s2.62.19,2.72-1.66.16-3.53.26-5.75c2.25,2.27-1.84,7,3.2,7.3,5.78.3,1.44-5.14,3.77-7.35,0,1.85,0,3.52,0,5.18a3,3,0,0,0,.53,1.92c2,1.69,3.83-1.76,5.05-.84,3.43,2.59,5,1.57,5.6-4.07a4,4,0,0,1,1.71-3.69C326.19,286.06,326.25,288.32,326.18,290.58Zm2.16-41.92c0,3.72-1.1,5.51-5.25,5.28-5.84-.32-11.72-.25-17.57,0-4.31.19-5.57-1.44-5.18-5.65.54-5.83.49-11.71.63-17.56.08-3.13,1.08-4.9,4.73-4.75,6.37.27,12.77.13,19.16.16,1.43,0,2.83.09,3.82,1.34C328.55,234.55,328.32,241.61,328.34,248.66ZM623.54,233c1.72-.53,2.46,1.38,2.81,2.52.63,2-1.51,1.84-2.61,2.44-1.66.32-2.37-.91-2.64-2C620.67,234.11,622.44,233.3,623.54,233Zm-17-9.31c2.17,0,2,1.54,2,3.1-.22,1.21.07,3.13-1.89,3.09-2.41,0-1.57-2.31-1.87-3.69S604.83,223.66,606.57,223.65Zm7.44,9.73c1.12,1,.15,1.47-.46,3.22,0,.31.59.72,1.84.28,1-.34,1.66-2.38,2.93-.58a2.39,2.39,0,0,1,.17,3c-1,1.35-1.86,3.07-4,2.94-4.87-.28-9.73-.63-14.6.27-2.17.41-2.82-1.72-3.89-3a2.22,2.22,0,0,1-.15-2.91c1.35-2,1.92,0,2.8.5.72.44,1.19.3,1.53-.58C602.24,231.21,609.53,229.6,614,233.38Zm-16.31-6c1.85.2,2.11,1.9,2.25,3.06.18,1.39-1.36,1.88-2.52,2a2.54,2.54,0,0,1-2.72-2.58C594.59,228.22,596.49,228,597.7,227.34Zm-48,10.07c.71-1.08,1.37-.16,2.1.33,1.68,1.13,2.45.76,2.25-.27-2-4.4,1.53-3.27,2.39-3.74,4.94-2.71,8-1.55,11.09,3.53.18.31,1.06.59,1.27.43,1.81-1.35,3.54-1.67,3.37,1.17-.13,2.08-1.66,4.25-4.11,4.09a85.12,85.12,0,0,0-14.89.15c-1.91.21-3.08-1.6-3.77-3.24A3,3,0,0,1,549.7,237.41Zm-28.35-1.84c1.2,2.77,1.3,3.25,3.78,2.28.15-.06.73,1,1.09,1.53-.61,2.35-2,4.65-4,4.5-4.87-.37-9.67.1-14.51.14-2.19,0-4.29-1.37-4.34-3.8-.06-3.21,1.7-2.08,3.37-1.06.57.35,1.29-.1,1.61-.88C510.44,233.3,519.44,231.14,521.35,235.57Zm-16-6.1c1.71-.66,2,.81,2.44,2,.9,2.25-1.58,1.85-1.89,2.9a2.83,2.83,0,0,1-3.1-2.64C502.51,230.21,504.26,229.88,505.32,229.47ZM489.89,245.1c10.22,0,20.42.62,30.66.26,5.13-.18,10.17-1.29,15.28-1.11,12.46.41,25,1.69,37.36-.06,15.83-2.24,31.65,1.75,47.39-.66,4.72-.72,9.43-.91,14.17-1.16,2-.1,3.53.16,3.61,2.69.08,2.8-2,2-3.37,2-12.34-.27-24.66-1.42-37-.82-1.72.08-3.46,0-5.19,0,.05.37.11.74.17,1.11H621v.74c-9.38,0-18.78.19-28.16,0-14.58-.36-29.16-1.67-43.74-.7-5.21.34-10.56,2.58-15.6,1.27-10-2.62-19.9-.59-29.83-.47-4.53.05-9,1.84-13.57,1.18-1.64-.23-4.39,1.27-4.53-2S488.25,245.1,489.89,245.1Zm83.14,4h-25.3v-.33H573ZM348.18,267.23c0-.36,0-.73,0-1.1h31.49v1.1Zm2-5.48H375l0,.59H350.25C350.24,262.14,350.22,262,350.2,261.75Zm33.62,24.17c-.17,1.79.17,3.25-2.17,4.68-2.68,1.64-1.37,5.59-1.29,8.44.11,3.71-1.26,4.44-4.62,4.31-6.73-.25-13.48-.15-20.21-.06-2.47,0-3.64-.44-3.06-3.31a36.08,36.08,0,0,0,.26-6.91c0-.85.06-2.27-.37-2.48-7.35-3.6-1.2-8.22-1.39-12.32,2,3,.88,9.09,7.37,7.21,2.76-.8,5.22-.3,7.88-.08,1.78.14,5,1.72,5.09-2.39,0-.18-.27-1,.69-.36,7.7,5,8.72,4.46,9.69-4.56.1-.85.21-1.69.39-3.11C383.4,278.94,384.16,282.35,383.82,285.92Zm-5.48-26c-8.51.5-17,.32-25.52.18-3.33-.06-3.41-.7-1.77-7.12-1.22,6.83,3,6.3,7.2,6,5.49-.33,11-.71,16.47-.72,4.61,0,9.13.38,8.34-6.73C384.84,256.56,384.33,259.55,378.34,259.9Zm46,0c.87.15,1.73.31,2.6.43-1.29,6-5.92,5.79-10.62,5.73-7.62-.1-15.24,0-22.86,0,.81-7,5.4-8.31,11.53-7.91,4.42.29,8.87,0,13.31-.06,4.24-.09,9.91,1.87,9.59-5.48C428.43,255.9,430.5,259.58,424.37,259.92ZM471.12,301c-.11,1.72-1.68,1.54-2.89,1.55-7.46.07-14.92,0-22.38.19-2.56.06-3.15-.95-3.42-3.38-.4-3.64,2.57-8.6-3.5-10.48-.36-.11-.42-1.63-.41-2.49q.21-16,.53-31.92c0-1.11-.39-2.77,1.46-2.85a1.77,1.77,0,0,1,1.84,2.13c-.53,4.27,2.25,3.75,5,3.87,3.08.14,4.23-1.12,4.14-4.12.19,3,1.27,4.37,4.47,3.79,2.18-.39,5,.35,5.31-1.28.47,1.74,3.3.91,5.67,1.06,2.88.17,4.37-.67,4.08-3.81-.09-1-.07-2.39,1.31-2.53,1.91-.18,1.67,1.51,1.69,2.62.2,11.17.33,22.33.48,33.5C469.93,290.78,471.41,296.11,471.12,301Zm10.88-57c-12.87,3-26,1.74-39,2.67-2.94.21-5.06-1.63-8-1.54-5.93.18-11.29,3.19-17.4,2.48-8.3-1-16.75,2.22-25.12-1.46-4.35-1.92-8.86,1.73-13.41,1.86-12.31.33-24.64.86-36.81-1.68-3.12-.65-3.55.71-3.62,3.34-.11,4.38.32,8.82-1.35,13.23-.17-10.8-.7-21.72,1.28-33.17-.19,7.68,4.77,5.89,9,6,24.25.74,48.5.57,72.74.06,19.65-.42,39.28-1.44,58.93-2.16,4.14-.15,8,5.17,6.43,8.84C485,244.18,483.34,243.78,482,244.09Zm3.5,27.45c-.1-2,1-2.52,2.6-2.48,3.85.11,7.72-.71,11.76.37V253.38l2,0c0,9.79-.06,19.59,0,29.38s.15,9.8,10.12,9.66c4.62-.07,9.25-.27,13.86,0,3.35.18,4.28-1,4.12-4.25-.44-8.87-.61-17.75-.84-26.63a47.61,47.61,0,0,1,.41-8.33c2.1,3.83,1.27,8,1.36,12.05.05,2.65.6,3.45,3.49,3.42,11.6-.09,11.59.05,11.09-11.69-.07-1.56-.62-3.18,1.18-5.84.43,7.62.88,14.13,1.15,20.65.22,5.51.34,11,.29,16.52,0,3,1.11,4,4.11,3.9,6.57-.24,13.16-.37,19.72-.12,4,.16,4.76-1.48,4.58-5-.55-10.64-.86-21.3-1.24-32a3.56,3.56,0,0,1,1.42-3.11c.27,5.38.53,10.77.8,16.25,3.72-.94,7.79-.56,11.81-.5,2.69,0,3.17-.79,3-3.36-.32-4.18-.09-8.41-.09-12.79,2,1.72,1.43,4,1.52,6,.48,9.93,1,19.87,1.14,29.81,0,3.9,1.47,4.76,5,4.52,6.55-.43,13.14-.71,19.7-.56,3.83.09,4.34-1.43,4.08-4.7-.69-8.5-1.14-17-1.58-25.53-.17-3.26,0-6.54,0-9.81l1.34-.08c.3,5.46.6,10.92.91,16.64,3.88-1.36,8.16-.76,12.39-.9,1.88-.07,3,.45,3.05,2.64s-1.43,2.08-2.87,2.1c-.89,0-1.78,0-2.67,0-10.29.09-10.29.09-9.16,10.62s1.14,10.7-9.65,10.94c-5.68.13-11.38,0-17,.32-3.83.23-5.58-.89-5.39-5s-.26-8.17-.16-12.25c.08-3.08-1.21-4-4.14-3.85-12.57.57-11.09-2.22-10.53,11,.49,11.74,2,10.15-9.53,10.46-5.86.16-11.73-.06-17.58.22-3.78.18-5.08-1.29-4.88-4.94s-.24-7.1,0-10.63c.32-4.32-1.18-5.48-5.64-5.78-5.14-.33-6,1.5-5.16,5.68a12.94,12.94,0,0,1-.13,4.17c-.37,3.62-1.28,7.62,4.31,8.21a3.64,3.64,0,0,1,1.78,1.11c1.16,1.08,2.77,2.24,2.07,4s-2.66.69-3.75.53A178.83,178.83,0,0,0,504,294.38c-3,.15-4.15-1.16-4-4.08.14-3.9-.12-7.82.18-11.71.31-4.11-1.43-5.42-5.3-5a59.12,59.12,0,0,1-6.39.1C486.87,273.73,485.6,273.59,485.5,271.54Zm2.07,43.64v-.44h38.7v.44Zm43.17,17.23c-9,0-17.94-.08-26.9,0-3,.05-3.08-1.51-2.33-5.33.32,4.41,2.41,4.29,4.59,4.27,8.22,0,16.43,0,24.65,0C530.75,331.73,530.75,332.07,530.74,332.41Zm7.51-17.19c0-.18,0-.37,0-.55H560.3c0,.18.05.37.07.55Zm58.21,5.37v-.49h28.8c.07.16.13.32.19.49Zm-25.81-6.32-.12-.65h69.91v.65ZM638,312.18c-16.16.15-32.33.13-48.49.29-15.78.16-31.56.51-47.34.72-2.23,0-4.68.8-6.48-1.36-1.54,2-3.83,1.63-5.89,1.63q-19.67,0-39.35-.11c-1.38,0-3.89.91-3.9-1.3,0-2.85,2.69-1.35,4.15-1.46,3-.24,6-.07,9.89-.07-1.86-2-3.94-3.54-1.49-5.56s2.84,1,4.16,1.64c2.18,1.13,3.17,4.53,7.15,3.28-1.58-2.32-3.06-4.42-4.47-6.56-.91-1.37-2.66-2.7.2-4.11s2.89.9,3.58,2.3c1.43,2.88,2,6.19,5.12,8.46-.35-3.21-.72-6.43-1-9.65-.15-1.4-.55-2.85,1.79-2.92s2.52,1.2,2.45,3c-.11,3.21-1.29,6.43.76,9.93,1.21-3.17,2.47-6.33,3.61-9.53.51-1.45.87-2.82,2.88-1.81,1.73.86,2.37,1.87,1,3.72-1.52,2.14-2.81,4.46-4.41,7,3.66,1.27,4.47-2.27,6.53-3.26,1.46-.71,2-3.81,4.61-1.67,2.88,2.38-.29,3.42-1.07,4.94,1.16,1,3.07.17,3.71,1.88,3.3-2.63,7.24-.55,10.8-1.53.62-.77-.07-1.34-.58-1.58-2.3-1-1.54-2.13-.41-3.62,1.33-1.77,2.22-.8,3.47.05,2.58,1.77,3.87,5.65,8.75,5.17-1.87-2.75-3.44-5-5-7.32-.78-1.19-2.63-2.35-.15-3.78,2.32-1.34,3.14,0,3.9,1.86,1.28,3.08,2.62,6.13,4.3,10,1.86-4.08-.3-7.21.05-10.3.16-1.41-.91-3.4,1.77-3.59,3-.22,2.35,2,2.32,3.61-.06,3.08-.29,6.15-.51,10.61,2.85-3.06,2.75-5.92,4-8.07.95-1.59.49-4.18,2.85-4.7a3.15,3.15,0,0,1,2.76,1.17c1.05,2.18-1.25,3.32-2.07,4.93s-2,3.24-3.26,5.32c4.22.62,5.29-2.68,7.41-4.15,1.45-1,2.38-3.32,4.7-.85s-.53,3.08-1.92,4.81H594.8c-1.77-1.94-4.67-3.31-1.84-5.62,2.44-2,3.18,1,4.63,1.79,2.14,1.19,3.34,4.32,7.18,3.26-2-2.7-3.66-5.12-5.45-7.48-1-1.38-1.22-2.32.59-3.31,1.65-.9,2.55-.59,3.28,1,1.5,3.35,3.06,6.68,5,10.92,1.71-4.1,0-7-.15-9.93-.09-1.54-1.31-3.77,1.78-4s2.27,2,2.3,3.66c0,2.92,0,5.85,0,10.26,3-3.83,3.28-7.16,4.37-10.12.64-1.74,1.13-3.36,3.69-2.07,2.3,1.15,1.46,2.38.59,3.81L616.57,309c4,1.25,5.06-2.26,7.21-3.72,1.37-.93,2.12-3.58,4.51-.9,2.2,2.46.19,3.18-2.87,5,5.31,0,9-.09,12.6,0,1.21.05,3.3-.9,3.48,1.08C641.74,313,639.29,312.17,638,312.18Zm76.81-85.81.09.54H691.12c0-.18,0-.36,0-.54Zm-33,84.45a1.06,1.06,0,0,1-.93,1.52c-1.18.16-1.53-.62-1.47-1.6.21-3.41-1-6.9.47-10.24C682.22,303.59,680.21,307.54,681.74,310.82Zm-4.49-84.13c-9.12,1.83-17.13,1.35-25.12,1.44l-.1-1.44ZM653,268.44c-.51-1.92-1.38-32.67-1-35.05,1.87,8.94,1.87,8.94,11.73,7.77a8.83,8.83,0,0,1,1-.16c3,0,6.3.82,8.95-.15,3.38-1.23-.19-5.57,2.58-8.26,1.79,7.07.92,14,1.82,20.8.7,5.25,1,10.56,1.76,15.8.33,2.18-.61,2.47-2.22,2.47-7.1,0-14.21-.1-21.31,0C653.85,271.73,653.44,270.17,653,268.44Zm1.66,15.63h24.55l.14.65H654.67Zm.5,7.08c1.26,7.67,1.26,7.68,8.88,7.44,1.41,0,2.81-.19,4.22-.19,3,0,6.25.74,9-.11,3.7-1.14-.35-5.44,2.59-8,.13,3.63,2.18,6.75-.12,10.05H655.12C655,298.28,654.33,294.93,655.14,291.15Zm3.5,39.2c-1.72,0-1.84-1.11-1.82-2.51,0-1.7.45-2.52,2.41-2.47,5.28.13,10.59-.24,15.85.17,4.22.32,5.82-.91,5.08-5.18a33.25,33.25,0,0,1,0-5.56c2.1,5,.08,10.47,3.78,15.56ZM691,233.14c.94.17.92.91,1,1.56.54,6.52,2.16,7.63,8.78,6.39,1.56-.29,2.06-.88,2.15-2.35.11-1.92.06-1.09.55,0,2,4.58,6,1.94,9,1.87s1.19-3,1.58-4.65c.28-1.19-1-2.93,1.7-3.48,1.61,10.13,1.62,10.13-8.32,10.29-4.07.06-8.14.27-12.21.11-2.3-.09-3.51.69-4.21,2.88Zm26.38,38.41c-7.27,0-14.55-.12-21.83-.06-2.7,0-2.71-2-2.86-3.63-.55-5.77-.86-11.58-1.35-18.68,3.58,4.86,1.07,9,2.1,12.74.46,1.67-.62,4.63,2.23,4.65s6.28,1.45,9-1.06c.29-.26-.27-2.31.82-.74,2.56,3.7,6,1.32,9,1.61,2.19.21,1.44-1.94,1.36-3.23-.32-5.65-.69-11.29-1.06-16.94-.06-1-.49-2.15,1.31-2.87,1.62,3.12.68,6.63,1.33,9.85,1,5.19.37,10.63,1.89,15.78C720,271,719.24,271.56,717.42,271.55Z" transform="translate(-112.79 -96.21)"/><path d="M221.35,214.1c-.65,0-2.41-.19-3-.19H197c-2.78.08-5.56.06-8.34,0H158.52c-13.18.23-29.05.46-38.46.5l-.14,68.87h38.83v1.06H119.92l13,8.53c.41-.56.82-1.61,1.22-1.6,1.32,0,.86,1.3.75,1.93-.86,4.71,1.42,6.05,5.58,5.24,2.05-.4,5.35,1.65,5.57-2.72.06-1.09.4-.25.52.09,2,5.79,6.72,1.11,9.78,2.64,1.2.6,1-2.63,2.05-.72a1.62,1.62,0,0,1-1.68,2.46c-7.93-.44-29,1.07-36.83-.92v25.59c8.1.62,29.25,1.72,37.16-.39.38,4.63-2,6.38-7.16,5.92-5.62-.5-25.35-.17-31-.2,0,8.53,14,8.53,22.57,8.53h68.23c17.23,0,11.06.2,13.8.17,2.09,0-2.62-3.27-1.45-3.4-.08-6.66-.07-12.89,0-11q-.06-5.25-.09-10.5l-.13-71.75c0-7.69,0-15.39.1-23.08m-20.21,7.25-.1,1.44c-8-.09-16,.39-25.12-1.44ZM172,310.55c1.54-3.28-.48-7.23,1.93-10.32,1.51,3.34.26,6.83.47,10.24.07,1-.28,1.76-1.46,1.6A1.07,1.07,0,0,1,172,310.55Zm-33-84.45h23.68l0,.55H138.85ZM161,267.6c-.15,1.59-.16,3.64-2.86,3.62-7.28-.06-14.56,0-21.83.06-1.81,0-2.56-.58-2-2.58,1.52-5.15.84-10.59,1.89-15.78.66-3.22-.29-6.72,1.34-9.85,1.79.72,1.37,1.84,1.3,2.87-.37,5.65-.74,11.29-1.06,16.94-.07,1.29-.82,3.45,1.36,3.23,3-.29,6.44,2.09,9-1.6,1.1-1.58.53.47.82.73,2.75,2.51,6.05,1.07,9,1.06s1.77-3,2.23-4.65c1-3.74-1.48-7.88,2.11-12.74C161.85,256,161.54,261.82,161,267.6Zm1.69-22.12c-.7-2.19-1.91-3-4.21-2.88-4.06.16-8.14,0-12.21-.11-9.93-.16-9.93-.16-8.32-10.29,2.75.55,1.42,2.29,1.7,3.48.39,1.64-1.39,4.58,1.58,4.65s7,2.71,9-1.87c.49-1.08.45-1.91.55,0,.09,1.47.59,2.06,2.15,2.35,6.63,1.24,8.25.13,8.78-6.39,0-.65,0-1.39,1-1.55Zm32.4,84.6H169.83c3.7-5.09,1.68-10.56,3.78-15.56a33.24,33.24,0,0,1-.05,5.56c-.74,4.27.86,5.5,5.08,5.18,5.26-.41,10.57,0,15.86-.17,1.95-.05,2.38.77,2.4,2.47C196.92,329,196.8,330.08,195.08,330.08Zm3.53-30H174c-2.29-3.3-.25-6.42-.12-10.05,2.95,2.55-1.11,6.85,2.59,8,2.75.85,6,.1,9,.11,1.41,0,2.82.15,4.23.19,7.61.24,7.61.23,8.87-7.44C199.39,294.66,198.76,298,198.61,300.08Zm.44-15.63H174.39l.14-.64h24.55Zm1.7-16.28c-.47,1.73-.87,3.29-3.34,3.24-7.1-.12-14.2,0-21.31,0-1.61,0-2.55-.28-2.22-2.47.78-5.24,1.07-10.55,1.77-15.8.9-6.77,0-13.73,1.81-20.79,2.77,2.68-.79,7,2.59,8.25,2.65,1,5.94.16,8.95.15a9,9,0,0,1,1,.16c9.87,1.17,9.87,1.17,11.73-7.77C202.12,235.51,201.26,266.25,200.75,268.17ZM221.88,309q-.12-18.75-.11-37.51Z" transform="translate(-112.79 -96.21)"/><path d="M221.77,266.68v-1.39q0-9.3,0-18.58" transform="translate(-112.79 -96.21)"/><path d="M442.49,339c-.36-3.2.68-4.55,4.26-4.4,6.9.3,13.83.31,20.72-.08,3.9-.23,4.57,1.26,3.81,4.48Z" transform="translate(-112.79 -96.21)"/><path d="M397.71,339c-.65-2.88-.29-4.28,3.45-4.09,7.22.37,14.47,0,21.71,0,.91,0,2.38-.54,2.35,1.15,0,1.51-1.35,1.2-2.39,1.3-1.73.19-4-1.22-4.86,1.67H416.9c.07-.95.47-2.65-1-2.18-4.11,1.34-8.24-.37-12.3.52-1.68.37-4-1.22-4.83,1.66Z" transform="translate(-112.79 -96.21)"/><path d="M352.93,339c-.4-2.55-.84-4.57,3.26-4.32,7,.43,14.1.07,21.16.15,1,0,2.93-.86,3,1,.05,2.23-1.93,1.39-3.22,1.39H357.19c-1.37,0-3-.3-3.19,1.8Z" transform="translate(-112.79 -96.21)"/><path d="M465,198.22c-.89,0-1.78.07-2.66.13-4.42.26-10-.93-12.87,1.31-2.07,1.59-.57,7.8-.7,12-.12,3.66-4.89,5.51-9.12,3.26-1.24-.65-2.22-1.87-3.73-1.51-6.37,1.5-7.49-1.66-7-7.14.42-4.39-.14-8.86.06-13.28.11-2.41-.6-3.05-2.95-2.95q-14.1.62-28.21.92c-2.07,0-2.67.64-2.68,2.73,0,5.67-.46,11.34-.5,17,0,2.6-.7,4.27-3.55,3.61-4.5-1.05-7.88,2.48-12.12,2.66-2.83.11-4-.59-3.61-3.47a16.19,16.19,0,0,0,.07-3.19c-.21-3.1,1.46-8-.56-8.91-3.43-1.5-8-.53-12-.52-1.49,0-2,.73-1.94,2.4.13,2.45-.27,4.94-.38,7.41-.29,6.53-.79,6.87-7.48,6.44-1.93-.12-2.51-.78-2.38-2.52.07-.88.05-1.77.06-2.66.13-11.71.57-12.24,12.59-12.44,5.26-.08,10.52-.73,15.79.72,3.86,1.06,5.93-.19,5.9-5.11-.08-18.1.5-36.21.56-54.32,0-3.55,1.13-4.76,4.51-4.47,2.9.26,5.36.29,5.53-4,.09-2.15,2.52-3.31,5.25-3.33,7.63-.06,15.27-.31,22.87-.85,2.71-.2,4.73,1.29,4.94,3,.52,4.33,3.3,3.8,5.91,3.36,4.25-.72,5,1.14,4.9,4.94-.27,18.1-.27,36.21-.39,54.31,0,5.38,1.29,6.63,6.42,4.81,6.08-2.16,12.23-.87,18.34-1.16.32,0,.67.65,1,1Zm-39.54-37.44h.12c0-3.54-.09-7.08,0-10.61.09-2.66-.7-3.83-3.63-3.68-6.54.36-13.1.46-19.65.54-2.31,0-3.56.52-3.5,3.27.17,7.26.06,14.53.05,21.8,0,1.48.11,1.67,2.06,2.05,6,1.17,11.89-.67,17.86-.05,4.4.46,8.1-1,6.47-7C424.74,165.14,425.36,162.89,425.45,160.78Z" transform="translate(-112.79 -96.21)"/><path d="M571.17,187.89q.68,14.67,1.37,29.33c.12,2.48-1.53,2.32-3.17,2.34-6.39.08-12.78.1-19.17.31-2.31.08-3.1-.74-3.15-3-.17-8-.4-16-.83-24-.14-2.66,1-3.51,3.32-3.48a21.25,21.25,0,0,0,5.82-.51,23.16,23.16,0,0,1-4.64,0c-5-1-7.38.48-6.3,5.93.51,2.53-.8,3.53-3.31,3.4-1.94-.11-4,.42-5.84,0-6.32-1.57-6.78,1.92-6.34,6.7.31,3.35.19,6.74.35,10.11.13,2.92,1.27,6.35-3.95,5.61-3.69-.53-9,2.17-8.25-5.5.46-4.55-.05-9.22-.27-13.83-.1-2.13-.17-4.13-3.64-2.84-2.37.87-5.29.17-7.92.54-3.44.48-4.51-1-4.16-4.15.26-2.36-1.35-6,.72-6.83,2.94-1.15,6.65-.65,10-.35,1.87.17,1.64,2.45,2.12,3.89s1.21,2.22,2.69,1.93c1.94-.38,1.1-1.76,1-2.94s-1.32-2.59.65-3.08c2.24-.56,2,1.26,2.2,2.63s.06,3,2.13,3,1.84-1.69,1.95-3.07-.35-3.24,1.85-3.06c2.44.2,1.06,2.11,1.07,3.29s-.82,2.59,1.23,2.76a2.07,2.07,0,0,0,2.42-2.2c.19-4.29,3.1-4.29,6.27-4.26,7.43.08,14.87-.23,22.29.08s14.47-1.06,21.72-1.2c2.88-.06,4.81.35,5.25,3.64.19,1.35.83,2.91,2.73,2.6,2.35-.37,1.11-2.12,1.13-3.35,0-1-1.43-2.48.83-2.83,2.06-.31,2.22,1.1,2.43,2.61s-.33,3.67,2.19,3.39c2-.21,1.5-2.08,1.57-3.42.07-1.49.09-3,2.23-2.67s.88,1.92.87,3c0,1.23-.52,2.7,1.3,2.91s2.39-1,2.68-2.6c1.31-7.17,7.09-3.57,10.74-3.89s1.74,3.65,2.25,5.72c1.15,4.69-.85,6.3-5.53,5.84-3.21-.32-7.59-1.16-9.48.49-2.27,2-.13,6.37-.25,9.72-.06,1.6.08,3.2.11,4.8.16,7.35.15,7.13-7.14,7.55-3.71.22-5-.81-5-4.57,0-5.14-.49-10.28-.78-15.42-.1-1.73-.1-3.12-2.73-2-1.7.69-3.87.1-5.79.34-4.75.59-8.64.4-7.56-6.17C573.74,189.25,572.87,187.94,571.17,187.89Zm-5.74,10.18c1.38-.49,4.53,1.45,4.35-2.75-.13-2.89-1.63-3.54-4.08-3.2-2,.28-4.74-1-4.77,2.95C560.9,198.35,562.77,198.3,565.43,198.07Z" transform="translate(-112.79 -96.21)"/><path d="M569.22,155.07c0,.71.1,1.42.12,2.13.27,9.59.27,9.59-8.78,11.21,1.73,1.14,3.42.58,5,.53,1.75-.06,3.49-.63,5.25-.68,14.52-.41,29.05-.72,43.58-1.11,3.59-.1,5.53.57,2.53,4.3a1.94,1.94,0,0,0-.38,1.49c2.2,8-3.34,7.09-8.11,7.09H573.86c-.84-1.19,4-3.24.34-5a1.91,1.91,0,0,0-2.7.7c-1.67,2.26-.94,4,1.45,5.65l-.63,1.17c-22.6,0-45.19,0-67.78.05-2.85,0-3.86-1-3.55-3.72a4.4,4.4,0,0,0-.15-2.62c-4.25-6.55.46-6.1,4.67-6.13,16.11-.13,32.19-1.72,48.8-.7-1.68-1.6-3.21-1-4.54-.92-2.37.2-3.11-.81-3.18-3-.19-6.36-.35-12.74-.86-19.08-.23-3,1.08-3.71,3.59-3.81,5.11-.19,10.21-.6,15.32-.64,2.26,0,4.46.28,4,3.87-.38,3.1-.57,6.38.65,9.46Zm-10.83,21.84c2.07.21,2.2-1.09,2.19-2.66,0-1.77-.74-2.54-2.56-2.41-1.64.11-2.08,1-1.91,2.45S556.23,177.27,558.39,176.91Z" transform="translate(-112.79 -96.21)"/><path d="M443.5,112.4c-17.89,0-35.39.07-52.89.16-2.66,0-5.32.24-8,.44-.84.07-1.95.14-1.82,1.4.06.65.58,1.83.82,1.81,5.48-.45,3.89,3.64,4.3,6.5.27,1.81,1.89,1.32,3,1.31,15.61-.17,31.21-.4,46.81-.58,1.8,0,3.4-.34,3.21-2.49-.33-3.84,1.18-4.88,5-4.73,1.91.07,3-1.78,3.32-3.71Zm-16.6,9.51c-5,0-9.93.12-14.89.19,0,.14,0,.28,0,.42-4.43-.13-8.85-.27-13.28-.39-1.75,0-3.69.38-3.65-2.43s2.09-2.42,3.78-2.44c9.39-.13,18.78-.15,28.16-.33,2,0,2.44.71,2.42,2.47S428.71,121.91,426.9,121.91Z" transform="translate(-112.79 -96.21)"/><path d="M555.41,125.58c-.09,1.19-.2,2.41-.26,3.67-1.65-4.37-5.37-3-7.26-2-2.48,1.3-.33,4.12.1,6.32,3.15,1.39,6.29,1,9.43-.05.67-2.62.33-5.28.1-8C556.82,125.52,556.12,125.57,555.41,125.58Z" transform="translate(-112.79 -96.21)"/><path d="M398,205c.08-1.77.48-3.6.18-5.31-.95-5.39,1.25-6.46,6.42-6.55,4.89-.09,6.42.84,5.8,5.76a79.76,79.76,0,0,0-.37,13.3c.32,7.54-5.38,4.09-8.61,4.78-4.55,1-3.46-2.59-3.51-5.06,0-2.3,0-4.61,0-6.92Z" transform="translate(-112.79 -96.21)"/><path d="M414.48,204.3c0-2.47.35-5-.09-7.41-.62-3.42.63-3.91,3.73-3.88,8.33.07,8.33-.09,8.29,8.51,0,3.54-.3,7.1,0,10.62s-1.25,4.4-4.56,4.35c-7.81-.12-7.8,0-7.58-7.94,0-1.41,0-2.83,0-4.25Z" transform="translate(-112.79 -96.21)"/><path d="M569.31,155.25c.11-10.08.11-10,11.18-9.36,2.25.13,3.18.77,3,3a33.21,33.21,0,0,0,.2,4.22c.61,9.85-1.5,11.63-11.36,9.89-1.53-.26-2.05-.8-2.19-2.27-.18-1.9-.62-3.78-.95-5.69C569.22,155.07,569.31,155.25,569.31,155.25Z" transform="translate(-112.79 -96.21)"/><path d="M531.32,154.38c.69-2-1.85-5.78,1-6.71,3.54-1.14,7.7-.47,11.58-.38,1,0,1,1.26,1,2.15.06,3.9.08,7.8.19,11.69.05,1.72-.54,2.73-2.38,2.73a9.4,9.4,0,0,0-1.06,0C531.64,164.79,531.64,164.79,531.32,154.38Z" transform="translate(-112.79 -96.21)"/><path d="M433.37,108.52c-14.8,1.53-28.44,1.06-43.41,1,7.73-3.3,14.32-6.09,20.9-8.92a3.63,3.63,0,0,1,3,.27C420.11,103.37,426.36,105.78,433.37,108.52Z" transform="translate(-112.79 -96.21)"/><path d="M566.15,133.17c1-1,2.67-.59,3.43-2.19s0-4.38,2.59-4.75a81.5,81.5,0,0,1,9-.41c.71,0,1.44.13,1.48,1.08.16,4.23.38,8.46.42,12.69,0,1.47-1.38,1.36-2.39,1.44-2.46.19-4.94.25-7.41.45-3.16.25-5.36-.35-4-4.28.93-2.78-2.14-2.64-3-4.14Z" transform="translate(-112.79 -96.21)"/><path d="M548,133.69l-.14-.17c-1.4,1.74-4.52,2.41-2.87,6,.73,1.58-1,2.6-2.84,3-10,1.94-11.21,1.12-11.26-9.37,0-1.66-2.35-5.4,1.7-5.18,3.56.2,8.72-3.83,10.57,2.73C544,133.33,546,133.36,548,133.69Z" transform="translate(-112.79 -96.21)"/><path d="M580.85,202.27c7.42-.16,7.25-.16,7.65,7.3.21,3.79-.22,5.74-4.86,5.64-9.35-.19-9.13.08-9.68-9C573.53,199,579.07,204,580.85,202.27Z" transform="translate(-112.79 -96.21)"/><path d="M538.41,203c2.17.79,6.67-2.55,6.52,3.88-.26,10.74,1.07,8.71-6.14,9-3.07.12-8.15,3-7.92-4.41C531.14,203.32,530.73,203.31,538.41,203Z" transform="translate(-112.79 -96.21)"/><path d="M610.91,201.37c8.94,0,6.94-1.39,7.8,8.47.66,7.58-5.09,4.13-8,4.39-6.8.61-7,.27-6.87-9.67C603.92,198.56,609,202.82,610.91,201.37Z" transform="translate(-112.79 -96.21)"/><path d="M507.91,203.66c7.21-.11,6.69,0,7.45,7.12.87,8.14-4.84,5.25-8.52,5.82-8.27,1.29-4.95-5.17-5.53-8.7C500.19,201.12,505.78,204.75,507.91,203.66Z" transform="translate(-112.79 -96.21)"/><path d="M464.87,198.32c9.08-.22,8.88-.21,9.34,10.12.19,4.34-.42,6.38-5.51,6.25-4.13-.1-5.38-1.32-4.77-5.15s-1.29-7.73,1.06-11.32Z" transform="translate(-112.79 -96.21)"/><path d="M363.68,210.29c1.48-1.8-2.37-6,2.69-6.81,6.23-1,6.77-.51,6.39,5.86a13.06,13.06,0,0,0-.17,2.63c.64,4.59-1.24,6.09-5.84,5.86-5.33-.26-2.29-4-3.06-6.11A5.77,5.77,0,0,1,363.68,210.29Z" transform="translate(-112.79 -96.21)"/><path d="M451.91,208.1c1.61-1.59-3.13-5.79,2.67-6.52,4.79-.61,7.46.18,6.39,5.73a15.46,15.46,0,0,0,0,3.19c.06,4.45-3.61,7-7.76,5.32C451.93,215.32,451.93,215.32,451.91,208.1Z" transform="translate(-112.79 -96.21)"/><path d="M383.24,109.34c9.29-5.07,18.42-10,28.36-13.13A146.1,146.1,0,0,1,383.24,109.34Z" transform="translate(-112.79 -96.21)"/><path d="M566.24,133.06c-2.86,1.21-5.75,1.93-8.75.42l-.1.17c.47-.71,1.44-1.49,1.35-2.14-.55-4.24,1.31-5.62,5.32-5.09,4.54.59,1,4,2,5.71.16.26,0,.69.06,1Z" transform="translate(-112.79 -96.21)"/><path d="M328.68,227.37c-1.26.72-1.31,2-1.45,3.21-.22,1.95.59,4.63-2.9,4.43s-.77-3.27-2.15-4.53c-2.06.84.49,5.24-3.44,4.56-4.22-.72-.28-4.87-2.9-6.42-1.75-.14-1.33,1.46-1.58,2.54-.42,1.74.31,4.25-2.74,4.24-3.24,0-1.58-3-2.72-4.64-1.1,1.67.24,5.73-3.16,4.61-3.91-1.29-.42-5.64-3.35-8.51,9.49.52,18-.66,26.41.66Z" transform="translate(-112.79 -96.21)"/><path d="M416.45,313.16c-1.09,1.26-1,4.08-2.92,3.82-6.13-.82-6.11-1-6.83-4.18-.29,6.3-10.29.51-8.23,9-1-3.66-.51-7.24-2.09-11.27,7.49,0,14.7,0,21.9,0,7.77,0,7.77-.06,6.17,8-1.69-.25-1.51-3.26-3.89-2.58-1.89.55-2.11,2.18-3,4C417.12,317.41,416.79,315.3,416.45,313.16Z" transform="translate(-112.79 -96.21)"/><path d="M405.21,324.89c-3.65,1.16-8.46.93-6.48,7.31C397.12,324,397.12,324,405.21,324.89Z" transform="translate(-112.79 -96.21)"/><path d="M380.08,320.49c-2-3.25-4.09-5.37-7.32-.84-.3-2.14-.57-4.09-.84-6-.15,5.86-4.88,2.27-7.26,3.43-2.18,1-1.7-1.4-2.18-2.5a8.74,8.74,0,0,0-.61-1c-.66,4.87-8.85.94-8.11,7.52-1.3-3.43-.1-6.71-1.65-9.92,8.27,0,16.05.23,23.8-.1,4.18-.17,5.65,1,4.59,5.14A28.89,28.89,0,0,0,380.08,320.49Z" transform="translate(-112.79 -96.21)"/><path d="M441.11,310.77c10.18,0,19,.1,27.86-.06,2.38,0,2.71.85,2.38,2.81a16.84,16.84,0,0,0-.1,3.18c.06,2.87.52,5.34-4.08,5.41s-4.84-2.08-4.67-5.39a12.17,12.17,0,0,0-.3-2.23c-1.89,2.57,1.27,7.83-5.44,7.68s-2.81-5.62-5.13-8c-1.19,3,1.81,9-5.31,7.8C438.52,320.72,445,314.37,441.11,310.77Z" transform="translate(-112.79 -96.21)"/><path d="M451,327.75c1.2,4.34-1.08,4.65-4.44,5-4.91.44-3.58-2.75-3.94-5.33-.5-3.57.92-4.43,4.35-4.52C451.14,322.75,451.9,324.54,451,327.75Z" transform="translate(-112.79 -96.21)"/><path d="M461.15,327.46c1,4-.52,5-4.29,5.2-5.38.23-3.47-3.44-3.94-6-.61-3.23,1.08-3.74,3.87-3.81C460.42,322.82,462.41,323.7,461.15,327.46Z" transform="translate(-112.79 -96.21)"/><path d="M471.16,328c.94,3.65-.76,4.39-4.43,4.59-5.24.29-3.73-3.1-4.14-5.8-.66-4.38,2.3-3.59,4.89-3.92C471.89,322.33,471.4,325.11,471.16,328Z" transform="translate(-112.79 -96.21)"/><path d="M440.25,239.69H472.1c-10.59,1.29-21.19,2.53-31.84,1.8Z" transform="translate(-112.79 -96.21)"/><path d="M381.65,241.3c-9.83,2.08-19.62.11-29.42,0Z" transform="translate(-112.79 -96.21)"/><path d="M355.07,245.45H379.8v.29H355.22Z" transform="translate(-112.79 -96.21)"/><path d="M534.45,282c0,2.29,0,4.57,0,6.86a1.7,1.7,0,0,1-1.57,1.8c-.91.08-1-.78-1.07-1.42-.25-4.55-.46-9.1-.67-13.66,0-1.19.41-2.17,1.69-2.19,1.51,0,1.38,1.27,1.4,2.29,0,2.11,0,4.21,0,6.32Z" transform="translate(-112.79 -96.21)"/><path d="M451.16,261.55c0,1.74,0,3.49,0,5.23,0,2.48,1.07,5.29-3.57,5.24-4.12,0-5.05-1.42-5-5.24.09-7.67-.12-7.66,7.34-7.7,5.68,0,11.36.07,17-.17,3-.13,4.74.46,4.19,3.95a17.77,17.77,0,0,0,0,4.25c.26,2.81,0,4.75-3.74,4.76-3.24,0-5.57-.19-5.39-4.25a12.15,12.15,0,0,0-1.07-5.73c0,1.6-.07,3.21,0,4.8.16,3,.37,5.35-4.15,5.34s-4.91-2.15-4.65-5.56c.12-1.56,0-3.14,0-4.72Z" transform="translate(-112.79 -96.21)"/><path d="M452.64,278.54c-.77-4.11.17-6.4,5-5.82,6.31.77,2.88,5.56,3.54,8.46,1,4.52-2.73,3.29-5.09,3.46C450.56,285,453,280.91,452.64,278.54Z" transform="translate(-112.79 -96.21)"/><path d="M471.24,278.49c-.24,2.82,1.41,6.19-4.18,6.29-6.38.12-4.12-4-4.61-7-.62-3.8.71-5.07,4.8-5.2C472.63,272.39,471,275.84,471.24,278.49Z" transform="translate(-112.79 -96.21)"/><path d="M451.09,278.14c.34,4,.83,6.71-4.1,6.71-5.66,0-3.9-3.71-4.16-6.5-.28-3.07-.56-5.67,4.3-5.72C453,272.57,450.68,276.46,451.09,278.14Z" transform="translate(-112.79 -96.21)"/><path d="M240.55,239.1c.22-1.67-.12-3.78,2.68-3.46,2.45.27,1.8,2.11,1.84,3.61.05,1.94-.75,2.93-2.82,2.83C240,242,240.38,240.51,240.55,239.1Z" transform="translate(-112.79 -96.21)"/><path d="M249.91,246.05c-.4,1.34.5,3.59-2.28,3.72-2.47.11-2.37-1.5-2.12-3.13s-.2-3.71,2.56-3.62C250.19,243.08,250.12,244.42,249.91,246.05Z" transform="translate(-112.79 -96.21)"/><path d="M232.37,238.72c-.1,1.56,0,3.23-2.29,3.32-2.54.1-2.2-1.63-2.08-3.17s-.37-3.29,2.15-3.32S232.44,237.1,232.37,238.72Z" transform="translate(-112.79 -96.21)"/><path d="M237.77,238.45c-.17,1.61.47,3.66-2.38,3.59-2.11-.06-2-1.44-1.95-2.84.09-1.63-.46-3.68,2.37-3.61C237.89,235.65,237.8,237,237.77,238.45Z" transform="translate(-112.79 -96.21)"/><path d="M250.49,238.5c-.05,1.73.29,3.68-2.48,3.6-2.25-.07-1.89-1.67-1.81-3,.1-1.6-.5-3.74,2.42-3.58C250.81,235.63,250.49,237.12,250.49,238.5Z" transform="translate(-112.79 -96.21)"/><path d="M233,246.59c.37-1.51-.35-3.76,2.53-3.55,2.15.16,2,1.56,1.69,3s.35,3.74-2.53,3.55C232.48,249.42,232.86,248,233,246.59Z" transform="translate(-112.79 -96.21)"/><path d="M240,246.43c.13-1.58-.08-3.38,2.38-3.27,2.65.12,1.82,2.11,1.83,3.54s.21,2.94-2,3C239.74,249.75,240,248,240,246.43Z" transform="translate(-112.79 -96.21)"/><path d="M231.48,246.18c-.28,1.26.66,3.3-2,3.32-2.1,0-2.25-1.29-2.07-2.82s-.24-3.41,2.19-3.52C231.8,243.07,231.54,244.63,231.48,246.18Z" transform="translate(-112.79 -96.21)"/><path d="M247.81,293.16c-2.39,2.65,1,7.24-3.77,7.57-3.9.26-1-3.75-2.46-5.32-1.74,1.37,1,5.49-3.11,5.4s-1.53-4-3.21-5.57c-1,1.14-.43,2.56-.57,3.85-.2,1.85-1.52,1.63-2.74,1.64s-1.81-.73-1.84-2c-.1-3.31-.44-6.38,4.73-5.68C238.81,293.59,242.92,293.16,247.81,293.16Z" transform="translate(-112.79 -96.21)"/><path d="M234.08,308.84c-1.51,1.17-3.61,2-4.51.11a6.85,6.85,0,0,1,.47-6.58c.65-1,1.93-.69,3-.54,1.36.19,1.58,1.27,1.51,2.38-.1,1.59-.31,3.16-.47,4.75Z" transform="translate(-112.79 -96.21)"/><path d="M246.28,305.79c0,2.48.08,4.39-3,4.22-2.41-.13-2.65-1.57-2.19-3.18.55-1.9-.66-5.18,3.07-5C247.46,301.94,245.88,304.63,246.28,305.79Z" transform="translate(-112.79 -96.21)"/><path d="M224,296.83c.22-1.37-.79-3.94,2.84-3.81,2.26.08,2.74,1,2.41,2.91s.53,4.51-2.75,4.8C223.72,301,223.76,299.22,224,296.83Z" transform="translate(-112.79 -96.21)"/><path d="M234,309c1.36-1.16,1.51-2.73,1.51-4.36s.38-2.77,2.36-2.74,2.13,1.24,2.23,2.82c.34,5.39-.72,6.15-6,4.13A1.14,1.14,0,0,0,234,309Z" transform="translate(-112.79 -96.21)"/><path d="M228.41,305.36c-.72,1.72,1.12,4.42-2.25,4.54-2.45.09-2.95-1.45-2.57-3.44.34-1.84-.7-4.56,2.67-4.67C229.48,301.69,227.67,304.27,228.41,305.36Z" transform="translate(-112.79 -96.21)"/><path d="M310.92,244c4.2.82,8.39-.06,12.59-.09,2.22,0,3.45,0,3.2,3.07-.23,2.89-1.22,4.18-3.71,3.29-1.47-.53-2.36-.09-3.59.1-1.93.3-4.24.41-3.4-2.84.33-1.25,0-2.24-1.29-2.28-1.09,0-1.31,1.07-1.2,2,.2,1.54-.14,3.65-1.64,3.1-3.05-1.1-6.2,1.63-8.95-.63-1.29-1.05-.72-2.67-.65-4,.09-1.59,1.58-1.67,2.84-1.69C307.05,243.93,309,244,310.92,244Z" transform="translate(-112.79 -96.21)"/><path d="M324.54,236.31c1.74-.05,2.82.54,2.38,2.44-.38,1.67.46,4.14-2.63,4.17-2.37,0-2.29-1.59-2.3-3.21C322,237.9,321.9,236,324.54,236.31Z" transform="translate(-112.79 -96.21)"/><path d="M321,239.24c.07,2.25-.23,3.65-2.48,3.56-2.6-.11-1.77-2.06-1.89-3.45-.14-1.72.12-3.14,2.43-3C321.61,236.47,320.93,238.3,321,239.24Z" transform="translate(-112.79 -96.21)"/><path d="M313.61,239.64c-.06,1.62,0,3.22-2.39,3.19-2.56,0-2-1.89-2.07-3.35-.06-1.62-.13-3.19,2.33-3.11S313.63,238.08,313.61,239.64Z" transform="translate(-112.79 -96.21)"/><path d="M308.17,239.34c.11,2.11-.17,3.68-2.66,3.64-2.18,0-2-1.56-1.85-2.91.15-1.55-.58-3.69,2.29-3.69C308.33,236.38,308.29,237.89,308.17,239.34Z" transform="translate(-112.79 -96.21)"/><path d="M670.48,255.22c-4.46-.34-4.46-.34-6-10.08a17.77,17.77,0,0,0-.41,2.77c.51,7.38.52,7.2-6.67,7.16-3.07,0-4.11-1.09-3.93-4a23.91,23.91,0,0,0-.22-5.28c-.35-2.14.4-2.81,2.49-2.78,5.66.09,11.33.15,17,0,2.33-.07,2.39,1,2.49,2.79q.54,9,1.46,17.92c.22,2.05-.31,2.73-2.42,3-6.75.79-10-2.37-9-9.09C665.71,253.83,668.85,256.28,670.48,255.22Z" transform="translate(-112.79 -96.21)"/><path d="M659.76,266.58c-7.25,2.07-5.26-3.39-5.88-6.44-.51-2.5-.61-5.4,3.36-4.5,2.62.6,7.56-2.7,7.17,3.55C664.21,262.5,667.94,269,659.76,266.58Z" transform="translate(-112.79 -96.21)"/><path d="M274.3,293.59c3.07.32,8.08-1.78,10.08.62,1.8,2.16.13,7,.42,10.68.34,4.24-.68,6.05-5.49,5.5s-9.53-.1-14.29.18c-3,.17-4.92-.36-4-4a6.23,6.23,0,0,0,0-1.06C261.57,293.54,261.57,293.54,274.3,293.59Z" transform="translate(-112.79 -96.21)"/><path d="M274,288.43c0-2-.46-4.08,2.61-4.22s2.93,1.65,2.88,3.73c-.05,2.27-.11,4.25-3.29,4.15C273.16,292,274.22,289.85,274,288.43Z" transform="translate(-112.79 -96.21)"/><path d="M267.53,289.2c-.65,1.94-1.66,3.78-4,2.74-2.9-1.28-1.07-4-1.13-6s1.95-1.7,3.21-1.54c3.55.48,1.35,3.25,1.83,5Z" transform="translate(-112.79 -96.21)"/><path d="M267.43,289.37a8,8,0,0,0,.72-1.39c.47-1.71,0-4.08,3.11-3.7,1.69.21,2.19,1.2,1.81,2.48-.52,1.76,1.5,4.49-1.7,5.23-2.16.5-3.83-.14-3.83-2.8Z" transform="translate(-112.79 -96.21)"/><path d="M311.72,310.75c-12,.2-11.7.21-11.15-11.8.19-4.35,1.61-5.26,5.51-4.92a57.91,57.91,0,0,0,11.7,0c5.09-.59,7,.75,6.69,6.33-.5,11.13-.14,11.14-11.74,10.6A8.83,8.83,0,0,1,311.72,310.75Z" transform="translate(-112.79 -96.21)"/><path d="M269.7,199.82c.37-10.12.37-10.12,10.75-10.16,6.67,0,6.67,0,6.43,6.86-.44,12.35-.44,12.35-10.53,12.38-6.91,0-6.9,0-6.65-7C269.72,201.24,269.7,200.53,269.7,199.82Z" transform="translate(-112.79 -96.21)"/><path d="M416.85,164.63c.74,3.78-.58,6.34-4.75,6.31-5.23,0-4.36-3.94-4.83-7.5-.8-6.12,4.42-3.74,6.38-4.19C417.2,158.42,417.24,161.85,416.85,164.63Z" transform="translate(-112.79 -96.21)"/><text class="cls-2" transform="translate(0 365.95)">AMSTER<tspan class="cls-3" x="398.49" y="0">D</tspan><tspan x="464.45" y="0">AM</tspan></text><path d="M441.88,106.26c-10.22-2.74-20.24-5.46-29.59-10.05" transform="translate(-112.79 -96.21)"/><text class="cls-4" transform="translate(203.82 404.76)">- Since 1989 -</text></svg>